<?xml version="1.0" standalone="no"?>
<!DOCTYPE svg PUBLIC "-//W3C//DTD SVG 20010904//EN"
 "http://www.w3.org/TR/2001/REC-SVG-20010904/DTD/svg10.dtd">
<svg version="1.0" xmlns="http://www.w3.org/2000/svg"
 width="472.000000pt" height="472.000000pt" viewBox="0 0 472.000000 472.000000"
 preserveAspectRatio="xMidYMid meet">

<g transform="translate(0.000000,472.000000) scale(0.100000,-0.100000)"
fill="#000000" stroke="none">
<path d="M1075 4414 c-260 -47 -503 -174 -687 -361 -102 -103 -133 -142 -195
-241 -288 -462 -247 -1080 99 -1506 56 -69 1933 -1951 1982 -1987 31 -23 50
-29 88 -29 l50 0 216 209 c119 115 575 569 1013 1008 839 842 849 853 942
1038 224 448 167 1000 -143 1390 -265 332 -652 509 -1075 492 -350 -14 -615
-131 -880 -388 l-120 -117 -105 101 c-137 132 -237 204 -371 272 -196 98 -363
136 -593 134 -77 0 -177 -7 -221 -15z"/>
</g>
</svg>
